<svg width="100" height="98" viewBox="0 0 100 98" fill="none" xmlns="http://www.w3.org/2000/svg">
<path d="M5.62217 25.3934L49.086 4.15002C49.2876 4.05146 49.5098 4.0001 49.7351 4C49.9604 3.9999 50.1826 4.05106 50.3843 4.14945L93.9351 25.3929C95.3114 26.0643 94.8239 28.0965 93.2864 28.0965H6.27178C4.73486 28.0965 4.24678 26.0657 5.62217 25.3934ZM94.0815 29.6727H5.48779C5.11483 29.6727 4.75715 29.8179 4.49342 30.0764C4.2297 30.3348 4.08154 30.6853 4.08154 31.0508V42.2799C4.08154 42.6454 4.2297 42.9959 4.49342 43.2544C4.75715 43.5128 5.11483 43.658 5.48779 43.658H8.47607V85.6562C8.47607 87.1784 9.73525 88.4124 11.2886 88.4124H88.2808C89.8341 88.4124 91.0933 87.1784 91.0933 85.6562V43.658H94.0815C94.4545 43.658 94.8122 43.5128 95.0759 43.2544C95.3396 42.9959 95.4878 42.6454 95.4878 42.2799V31.0508C95.4878 30.6853 95.3396 30.3348 95.0759 30.0764C94.8122 29.8179 94.4545 29.6727 94.0815 29.6727Z" fill="#DADBDC"/>
<path d="M27.1472 85.5115H18.2841V39.2383H27.1472V85.5115ZM81.6274 39.2383H72.7643V85.5115H81.6274V39.2383ZM95.6304 25.9618L50.7128 4.05167C50.4753 3.93582 50.2136 3.87557 49.9484 3.87567C49.6831 3.87577 49.4215 3.93622 49.1841 4.05225L4.35633 25.9623C2.73699 26.7538 3.3118 29.145 5.12137 29.145H5.55691C5.82163 29.145 6.08274 29.0849 6.3198 28.9695L49.2413 8.06297C49.4773 7.94799 49.7372 7.88791 50.0008 7.88741C50.2644 7.88691 50.5245 7.94601 50.761 8.0601L94.1097 28.9724C94.3452 29.086 94.6042 29.1451 94.8667 29.145C96.6768 29.1452 97.2509 26.7523 95.6304 25.9618Z" fill="#767777"/>
<path d="M96.9336 26.2445H3.06641C2.69345 26.2445 2.33576 26.3897 2.07204 26.6481C1.80831 26.9066 1.66016 27.2571 1.66016 27.6226V31.4333C1.66016 31.7988 1.80831 32.1494 2.07204 32.4078C2.33576 32.6663 2.69345 32.8115 3.06641 32.8115H96.9336C97.3065 32.8115 97.6642 32.6663 97.928 32.4078C98.1917 32.1494 98.3398 31.7988 98.3398 31.4333V27.6226C98.3398 27.2571 98.1917 26.9066 97.928 26.6481C97.6642 26.3897 97.3065 26.2445 96.9336 26.2445ZM96.9336 39.0984H3.06641C2.69345 39.0984 2.33576 39.2436 2.07204 39.502C1.80831 39.7605 1.66016 40.111 1.66016 40.4765V44.2872C1.66016 44.6527 1.80831 45.0033 2.07204 45.2617C2.33576 45.5202 2.69345 45.6653 3.06641 45.6653H35.0096V85.5115H8.17422C7.25156 85.5115 6.39687 85.9872 5.92402 86.7637L2.36445 92.6102C1.32227 94.322 2.58086 96.4939 4.61465 96.4939H95.3853C97.4191 96.4939 98.6777 94.322 97.6356 92.6102L94.076 86.7637C93.8436 86.382 93.514 86.0659 93.1196 85.8464C92.7252 85.627 92.2794 85.5116 91.8258 85.5115H64.902V45.6653H96.9336C97.3065 45.6653 97.6642 45.5202 97.928 45.2617C98.1917 45.0033 98.3398 44.6527 98.3398 44.2872V40.4765C98.3398 40.111 98.1917 39.7605 97.928 39.502C97.6642 39.2436 97.3065 39.0984 96.9336 39.0984Z" fill="#999999"/>
<path d="M35.0063 85.5324L64.8892 85.4943L64.8987 92.6452L35.0159 92.6833L35.0063 85.5324Z" fill="#C8CACB"/>
<path d="M69.2915 96.4938H30.6196V92.538C30.6196 92.1725 30.7678 91.822 31.0315 91.5636C31.2952 91.3051 31.6529 91.1599 32.0259 91.1599H67.8853C68.2582 91.1599 68.6159 91.3051 68.8796 91.5636C69.1433 91.822 69.2915 92.1725 69.2915 92.538V96.4938Z" fill="#EBECED"/>
<path d="M60.462 85.5115H39.4497V66.6936C39.4497 60.3711 44.1534 55.2456 49.956 55.2456C55.7583 55.2456 60.4622 60.3711 60.4622 66.6936V85.5115H60.462Z" fill="#2B3B47"/>
</svg>
