<svg width="17" height="20" viewBox="0 0 17 20" fill="none" xmlns="http://www.w3.org/2000/svg">
<path d="M7.73355 19.3333C8.28911 19.3333 8.68333 19.0942 8.91622 18.616C9.14999 18.1387 9.11133 17.6778 8.80022 17.2333L3.63355 9.99999L8.80022 2.76666C9.11133 2.32221 9.14999 1.86088 8.91622 1.38266C8.68333 0.905323 8.28911 0.666656 7.73355 0.666656C7.48911 0.666656 7.26688 0.727545 7.06688 0.849323C6.86688 0.97199 6.70022 1.12221 6.56688 1.29999L0.933552 9.23332C0.844662 9.34443 0.777996 9.46666 0.733551 9.59999C0.689108 9.73332 0.666883 9.86666 0.666883 9.99999C0.666883 10.1333 0.689108 10.2609 0.733551 10.3827C0.777996 10.5053 0.844662 10.6333 0.933552 10.7667L6.56688 18.7C6.70022 18.8778 6.86688 19.028 7.06688 19.1507C7.26688 19.2724 7.48911 19.3333 7.73355 19.3333ZM15.6669 19.3333C16.2224 19.3333 16.6167 19.0942 16.8496 18.616C17.0833 18.1387 17.0447 17.6778 16.7336 17.2333L11.5669 9.99999L16.7336 2.76666C17.0447 2.32221 17.0833 1.86088 16.8496 1.38266C16.6167 0.905323 16.2224 0.666656 15.6669 0.666656C15.4224 0.666656 15.2002 0.727545 15.0002 0.849323C14.8002 0.97199 14.6336 1.12221 14.5002 1.29999L8.86688 9.23332C8.778 9.34443 8.71133 9.46666 8.66688 9.59999C8.62244 9.73332 8.60022 9.86666 8.60022 9.99999C8.60022 10.1333 8.62244 10.2667 8.66688 10.4C8.71133 10.5333 8.778 10.6555 8.86688 10.7667L14.5002 18.7C14.6336 18.8778 14.8002 19.028 15.0002 19.1507C15.2002 19.2724 15.4224 19.3333 15.6669 19.3333Z" fill="url(#paint0_linear_508_1516)"/>
<defs>
<linearGradient id="paint0_linear_508_1516" x1="8.83344" y1="0.666656" x2="8.83344" y2="25.3333" gradientUnits="userSpaceOnUse">
<stop stop-color="#41C78F"/>
<stop offset="1" stop-color="#41C78F" stop-opacity="0"/>
</linearGradient>
</defs>
</svg>
