<svg width="21" height="22" viewBox="0 0 21 22" fill="none" xmlns="http://www.w3.org/2000/svg">
<path d="M19.1468 16.5312C19.1468 16.8386 19.0785 17.1546 18.9333 17.462C18.7882 17.7695 18.6003 18.0598 18.3527 18.3331C17.9342 18.7942 17.4731 19.1273 16.9522 19.3408C16.4398 19.5542 15.8847 19.6653 15.2869 19.6653C14.4159 19.6653 13.4851 19.4603 12.503 19.0419C11.521 18.6234 10.5389 18.0598 9.56538 17.351C8.58332 16.6337 7.6525 15.8395 6.76438 14.9599C5.8848 14.0718 5.09061 13.141 4.38182 12.1675C3.68157 11.1939 3.11796 10.2204 2.70805 9.25545C2.29815 8.28193 2.0932 7.35111 2.0932 6.46299C2.0932 5.8823 2.19568 5.32722 2.40063 4.81484C2.60558 4.29392 2.93008 3.81571 3.38268 3.38872C3.92922 2.85073 4.527 2.586 5.15893 2.586C5.39804 2.586 5.63715 2.63724 5.85064 2.73971C6.07267 2.84219 6.26908 2.9959 6.42279 3.21793L8.40399 6.01039C8.5577 6.22388 8.66871 6.42029 8.74557 6.60816C8.82243 6.7875 8.86513 6.96683 8.86513 7.12908C8.86513 7.33403 8.80535 7.53898 8.68579 7.7354C8.57478 7.93181 8.41253 8.13676 8.20757 8.34171L7.55856 9.01634C7.46463 9.11028 7.42193 9.22129 7.42193 9.35793C7.42193 9.42624 7.43047 9.48602 7.44755 9.55434C7.47317 9.62265 7.49879 9.67389 7.51587 9.72513C7.66958 10.0069 7.93431 10.3741 8.31005 10.8182C8.69433 11.2623 9.10424 11.7149 9.5483 12.1675C10.0094 12.6201 10.4535 13.0385 10.9061 13.4228C11.3502 13.7985 11.7174 14.0547 12.0077 14.2084C12.0504 14.2255 12.1016 14.2511 12.1614 14.2768C12.2297 14.3024 12.2981 14.3109 12.3749 14.3109C12.5201 14.3109 12.6311 14.2597 12.725 14.1657L13.3741 13.5253C13.5875 13.3118 13.7925 13.1495 13.9889 13.047C14.1853 12.9275 14.3817 12.8677 14.5952 12.8677C14.7575 12.8677 14.9283 12.9019 15.1161 12.9787C15.304 13.0556 15.5004 13.1666 15.7139 13.3118L18.5405 15.3186C18.7626 15.4723 18.9163 15.6516 19.0102 15.8651C19.0956 16.0786 19.1468 16.2921 19.1468 16.5312Z" stroke="#898989" stroke-width="1.02476" stroke-miterlimit="10"/>
</svg>
