<svg width="21" height="22" viewBox="0 0 21 22" fill="none" xmlns="http://www.w3.org/2000/svg">
<path d="M19.1833 7.90487V4.02788C19.1833 2.8238 18.6368 2.33704 17.279 2.33704H13.829C12.4712 2.33704 11.9246 2.8238 11.9246 4.02788V7.89633C11.9246 9.10896 12.4712 9.58718 13.829 9.58718H17.279C18.6368 9.59572 19.1833 9.10896 19.1833 7.90487Z" stroke="#898989" stroke-width="1.02476" stroke-linecap="round" stroke-linejoin="round"/>
<path d="M19.1833 17.5119V14.0619C19.1833 12.7041 18.6368 12.1575 17.279 12.1575H13.829C12.4712 12.1575 11.9246 12.7041 11.9246 14.0619V17.5119C11.9246 18.8697 12.4712 19.4162 13.829 19.4162H17.279C18.6368 19.4162 19.1833 18.8697 19.1833 17.5119Z" stroke="#898989" stroke-width="1.02476" stroke-linecap="round" stroke-linejoin="round"/>
<path d="M9.36269 7.90487V4.02788C9.36269 2.8238 8.81615 2.33704 7.45835 2.33704H4.00834C2.65054 2.33704 2.104 2.8238 2.104 4.02788V7.89633C2.104 9.10896 2.65054 9.58718 4.00834 9.58718H7.45835C8.81615 9.59572 9.36269 9.10896 9.36269 7.90487Z" stroke="#898989" stroke-width="1.02476" stroke-linecap="round" stroke-linejoin="round"/>
<path d="M9.36269 17.5119V14.0619C9.36269 12.7041 8.81615 12.1575 7.45835 12.1575H4.00834C2.65054 12.1575 2.104 12.7041 2.104 14.0619V17.5119C2.104 18.8697 2.65054 19.4162 4.00834 19.4162H7.45835C8.81615 19.4162 9.36269 18.8697 9.36269 17.5119Z" stroke="#898989" stroke-width="1.02476" stroke-linecap="round" stroke-linejoin="round"/>
</svg>
