<svg width="100" height="48" viewBox="0 0 100 48" fill="none" xmlns="http://www.w3.org/2000/svg">
<path d="M2.95738 41.0344C3.31724 41.0485 3.67567 40.9817 4.00628 40.839C4.33689 40.6962 4.63125 40.4811 4.86766 40.2096C5.35002 39.6577 5.5912 38.8139 5.5912 37.6781V11.5275H12.7753L12.8768 37.8813C12.9085 40.8123 12.1152 43.1152 10.497 44.8092C8.87864 46.4968 6.75897 47.3406 4.13797 47.3406C2.73173 47.3373 1.33498 47.1102 0.000152588 46.6679L1.39628 40.7234C1.89205 40.9256 2.42194 41.0312 2.95738 41.0344ZM12.9339 0V7.08012H5.48968V0H12.9339Z" fill="white"/>
<path d="M93.2476 13.0627L88.0499 28.6511L82.8523 13.0627H78.6064V20.3522L84.902 35.8512C84.2038 37.9448 82.9536 38.9979 81.1639 38.9979C80.6274 39.0018 80.0924 38.94 79.5709 38.8139L78.3841 44.2382C79.9326 44.5998 81.1934 44.7817 82.1666 44.7838C84.0099 44.8228 85.7977 44.1529 87.1612 42.9123C88.5447 41.6693 89.7992 39.5884 90.9247 36.6696L100 13.0627H93.2476Z" fill="#41C78F"/>
<path d="M21.355 11.8184V27.3744C21.355 29.1635 21.7484 30.4958 22.548 31.3523C23.3414 32.215 24.6001 32.6464 26.3242 32.6464C28.0504 32.6464 29.3092 32.215 30.1003 31.3523C30.8937 30.4895 31.2892 29.1635 31.2871 27.3744V19.2917L38.4711 12.1101V27.9897C38.4711 31.4727 37.4113 34.1246 35.2916 35.9454C33.1714 37.7725 30.1992 38.6861 26.3749 38.6861C22.5862 38.6861 19.6732 37.7894 17.6359 35.9961C15.5987 34.2071 14.5811 31.5362 14.5833 27.9834V11.8057H21.355V11.8184Z" fill="white"/>
<path d="M60.0338 25.9727C59.3118 24.9373 58.3317 24.1085 57.1906 23.5683C55.8083 22.9485 54.3723 22.4558 52.9005 22.0966C51.2123 21.6462 50.0234 21.2063 49.3338 20.777C49.0109 20.5943 48.7439 20.3271 48.5617 20.004C48.3794 19.6809 48.2887 19.3143 48.2993 18.9435C48.2969 18.625 48.3791 18.3116 48.5374 18.0352C48.6957 17.7587 48.9245 17.5293 49.2005 17.3701C49.8915 16.9511 50.6903 16.744 51.4979 16.7742C52.7734 16.7837 54.0424 16.9565 55.274 17.2882C55.6103 17.377 55.9341 17.4722 56.2577 17.5736V16.006L51.4344 11.1843C48.293 11.1971 45.7544 11.9373 43.8187 13.4048C41.8703 14.8892 40.8993 16.9513 40.8993 19.6094C40.8993 23.676 43.2772 26.3279 48.0328 27.565C49.9304 28.079 51.3075 28.5484 52.1706 28.9607C53.0338 29.3729 53.4653 29.9757 53.4653 30.7688C53.4653 31.4223 53.1226 31.9551 52.4308 32.3739C51.7386 32.7862 50.7616 32.9958 49.4861 32.9958C48.2091 32.9835 46.9393 32.8021 45.7099 32.4564C44.4415 32.1094 43.212 31.6333 42.0409 31.0354L40.1316 36.2566C41.6174 36.9613 43.1665 37.5242 44.7581 37.9379C46.2997 38.3565 47.8889 38.5741 49.4863 38.5851C52.9324 38.5851 55.7417 37.8619 57.9142 36.4154C60.0846 34.9689 61.1698 32.8838 61.1698 30.1601C61.1698 28.4342 60.7912 27.0385 60.0338 25.9727Z" fill="white"/>
<path d="M71.0162 11.3373C71.0162 10.1264 71.2764 9.23104 71.8032 8.65998C72.0558 8.37887 72.3666 8.15605 72.714 8.00699C73.0613 7.85793 73.437 7.78619 73.8148 7.79676C74.0334 7.79913 74.2517 7.81395 74.4686 7.84116V6.28732L70.7178 2.53784C69.0169 2.86133 67.6271 3.50217 66.561 4.47918C64.9744 5.93833 64.179 8.22225 64.1748 11.331V13.1018H60.3923V18.557H64.124V37.6213H70.9528V18.5633H76.5567V13.1074H71.0037V11.3373H71.0162Z" fill="#41C78F"/>
</svg>
