<svg width="21" height="21" viewBox="0 0 21 21" fill="none" xmlns="http://www.w3.org/2000/svg">
<path d="M7.64402 16.3409H7.21704C3.80119 16.3409 2.09326 15.4869 2.09326 11.2171V6.94726C2.09326 3.53141 3.80119 1.82349 7.21704 1.82349H14.0487C17.4646 1.82349 19.1725 3.53141 19.1725 6.94726V11.2171C19.1725 14.6329 17.4646 16.3409 14.0487 16.3409H13.6218C13.357 16.3409 13.1008 16.469 12.9386 16.6824L11.6576 18.3904C11.094 19.1419 10.1718 19.1419 9.60814 18.3904L8.32719 16.6824C8.19056 16.4946 7.87459 16.3409 7.64402 16.3409Z" stroke="#898989" stroke-width="1.02476" stroke-miterlimit="10" stroke-linecap="round" stroke-linejoin="round"/>
<path d="M14.0458 9.50907H14.0535" stroke="#898989" stroke-width="2.04951" stroke-linecap="round" stroke-linejoin="round"/>
<path d="M10.629 9.50907H10.6367" stroke="#898989" stroke-width="2.04951" stroke-linecap="round" stroke-linejoin="round"/>
<path d="M7.21239 9.50907H7.22006" stroke="#898989" stroke-width="2.04951" stroke-linecap="round" stroke-linejoin="round"/>
</svg>
