<svg width="21" height="22" viewBox="0 0 21 22" fill="none" xmlns="http://www.w3.org/2000/svg">
<path d="M19.1833 5.77242V7.83901C19.1833 9.18827 18.3294 10.0422 16.9801 10.0422H14.0596V4.07303C14.0596 3.12513 14.8367 2.35657 15.7846 2.35657C16.7154 2.36511 17.5694 2.74085 18.1842 3.3557C18.7991 3.9791 19.1833 4.83306 19.1833 5.77242Z" stroke="#898989" stroke-width="1.02476" stroke-miterlimit="10" stroke-linecap="round" stroke-linejoin="round"/>
<path d="M2.104 6.62638V18.5819C2.104 19.2907 2.90671 19.692 3.47032 19.265L4.93062 18.172C5.2722 17.9158 5.75043 17.9499 6.05786 18.2574L7.47541 19.6835C7.80846 20.0165 8.35503 20.0165 8.68808 19.6835L10.1227 18.2488C10.4216 17.9499 10.8998 17.9158 11.2329 18.172L12.6932 19.265C13.2568 19.6835 14.0595 19.2821 14.0595 18.5819V4.06449C14.0595 3.12513 14.8281 2.35657 15.7674 2.35657H6.37382H5.51986C2.95797 2.35657 2.104 3.88516 2.104 5.77242V6.62638Z" stroke="#898989" stroke-width="1.02476" stroke-miterlimit="10" stroke-linecap="round" stroke-linejoin="round"/>
<path d="M5.5199 8.33423H10.6437" stroke="#898989" stroke-width="1.02476" stroke-linecap="round" stroke-linejoin="round"/>
<path d="M6.16034 11.75H10.0032" stroke="#898989" stroke-width="1.02476" stroke-linecap="round" stroke-linejoin="round"/>
</svg>
