<svg width="21" height="21" viewBox="0 0 21 21" fill="none" xmlns="http://www.w3.org/2000/svg">
<path d="M10.2476 13.0619C11.6624 13.0619 12.8094 11.915 12.8094 10.5001C12.8094 9.08517 11.6624 7.93817 10.2476 7.93817C8.83267 7.93817 7.68567 9.08517 7.68567 10.5001C7.68567 11.915 8.83267 13.0619 10.2476 13.0619Z" stroke="#F7F7F7" stroke-width="1.02476" stroke-miterlimit="10" stroke-linecap="round" stroke-linejoin="round"/>
<path d="M1.70789 11.2516V9.74862C1.70789 8.8605 2.43375 8.12609 3.33042 8.12609C4.87609 8.12609 5.50802 7.03302 4.73091 5.6923C4.28685 4.92373 4.55158 3.92459 5.32869 3.48053L6.80604 2.63511C7.48068 2.23375 8.35172 2.47286 8.75308 3.14749L8.84702 3.30974C9.61558 4.65046 10.8794 4.65046 11.6566 3.30974L11.7505 3.14749C12.1519 2.47286 13.0229 2.23375 13.6975 2.63511L15.1749 3.48053C15.952 3.92459 16.2167 4.92373 15.7727 5.6923C14.9955 7.03302 15.6275 8.12609 17.1732 8.12609C18.0613 8.12609 18.7957 8.85196 18.7957 9.74862V11.2516C18.7957 12.1397 18.0698 12.8741 17.1732 12.8741C15.6275 12.8741 14.9955 13.9672 15.7727 15.3079C16.2167 16.085 15.952 17.0756 15.1749 17.5197L13.6975 18.3651C13.0229 18.7665 12.1519 18.5274 11.7505 17.8527L11.6566 17.6905C10.888 16.3498 9.62412 16.3498 8.84702 17.6905L8.75308 17.8527C8.35172 18.5274 7.48068 18.7665 6.80604 18.3651L5.32869 17.5197C4.55158 17.0756 4.28685 16.0765 4.73091 15.3079C5.50802 13.9672 4.87609 12.8741 3.33042 12.8741C2.43375 12.8741 1.70789 12.1397 1.70789 11.2516Z" stroke="#F7F7F7" stroke-width="1.02476" stroke-miterlimit="10" stroke-linecap="round" stroke-linejoin="round"/>
</svg>
