<svg width="18" height="18" viewBox="0 0 18 18" fill="none" xmlns="http://www.w3.org/2000/svg">
<path d="M11.25 4.61252H4.5C2.8425 4.61252 1.5 5.95502 1.5 7.61252V4.90498C1.5 3.37498 2.7375 2.13748 4.2675 2.13748H8.4825C10.0125 2.13748 11.25 3.08252 11.25 4.61252Z" fill="#5E6278"/>
<path opacity="0.4" d="M13.11 9.15001C12.735 9.51751 12.555 10.0725 12.705 10.635C12.8925 11.3325 13.5825 11.775 14.3025 11.775H15V12.8625C15 14.52 13.6575 15.8625 12 15.8625H4.5C2.8425 15.8625 1.5 14.52 1.5 12.8625V7.61252C1.5 5.95502 2.8425 4.61252 4.5 4.61252H12C13.65 4.61252 15 5.96252 15 7.61252V8.69998H14.19C13.77 8.69998 13.3875 8.86501 13.11 9.15001Z" fill="#5E6278"/>
<path d="M16.4999 9.465V11.01C16.4999 11.43 16.1549 11.775 15.7274 11.775H14.2799C13.4699 11.775 12.7274 11.1825 12.6599 10.3725C12.6149 9.90001 12.7949 9.45751 13.1099 9.15001C13.3874 8.86501 13.7699 8.69998 14.1899 8.69998H15.7274C16.1549 8.69998 16.4999 9.045 16.4999 9.465Z" fill="#5E6278"/>
<path d="M9.75 8.92502H5.25C4.9425 8.92502 4.6875 8.67002 4.6875 8.36252C4.6875 8.05502 4.9425 7.80002 5.25 7.80002H9.75C10.0575 7.80002 10.3125 8.05502 10.3125 8.36252C10.3125 8.67002 10.0575 8.92502 9.75 8.92502Z" fill="#5E6278"/>
</svg>
